<mxfile host="app.diagrams.net" modified="2020-10-23T12:43:36.302Z" agent="5.0 (Windows NT 10.0; Win64; x64) AppleWebKit/537.36 (KHTML, like Gecko) Chrome/86.0.4240.111 Safari/537.36 Edg/86.0.622.51" etag="RUXjnBcqV9ZIq-xvlLN8" version="13.8.1" type="github">
  <diagram id="GiysFdw9YnmzrjZ-zMn3" name="Page-1">
    <mxGraphModel dx="1422" dy="914" grid="1" gridSize="10" guides="1" tooltips="1" connect="1" arrows="1" fold="1" page="1" pageScale="1" pageWidth="850" pageHeight="1100" math="0" shadow="0">
      <root>
        <mxCell id="0" />
        <mxCell id="1" parent="0" />
        <mxCell id="StKT0LGSQb8zcyLeMCrR-4" style="edgeStyle=orthogonalEdgeStyle;rounded=0;orthogonalLoop=1;jettySize=auto;html=1;entryX=0.596;entryY=0.125;entryDx=0;entryDy=0;entryPerimeter=0;" parent="1" source="StKT0LGSQb8zcyLeMCrR-1" target="StKT0LGSQb8zcyLeMCrR-2" edge="1">
          <mxGeometry relative="1" as="geometry" />
        </mxCell>
        <mxCell id="StKT0LGSQb8zcyLeMCrR-37" style="edgeStyle=orthogonalEdgeStyle;rounded=0;orthogonalLoop=1;jettySize=auto;html=1;entryX=0.5;entryY=1;entryDx=0;entryDy=0;" parent="1" source="StKT0LGSQb8zcyLeMCrR-1" target="azHbH-vk2VEpxo70YfmV-8" edge="1">
          <mxGeometry relative="1" as="geometry">
            <mxPoint x="98" y="182.03999999999996" as="targetPoint" />
          </mxGeometry>
        </mxCell>
        <mxCell id="StKT0LGSQb8zcyLeMCrR-1" value="" style="verticalLabelPosition=bottom;html=1;verticalAlign=top;align=center;strokeColor=none;fillColor=#00BEF2;shape=mxgraph.azure.user;" parent="1" vertex="1">
          <mxGeometry x="110" y="340" width="47.5" height="50" as="geometry" />
        </mxCell>
        <mxCell id="StKT0LGSQb8zcyLeMCrR-5" style="edgeStyle=orthogonalEdgeStyle;rounded=0;orthogonalLoop=1;jettySize=auto;html=1;" parent="1" source="StKT0LGSQb8zcyLeMCrR-2" edge="1">
          <mxGeometry relative="1" as="geometry">
            <mxPoint x="310" y="520" as="targetPoint" />
          </mxGeometry>
        </mxCell>
        <mxCell id="StKT0LGSQb8zcyLeMCrR-2" value="repo" style="shape=cylinder3;whiteSpace=wrap;html=1;boundedLbl=1;backgroundOutline=1;size=15;" parent="1" vertex="1">
          <mxGeometry x="98" y="480" width="62" height="80" as="geometry" />
        </mxCell>
        <mxCell id="StKT0LGSQb8zcyLeMCrR-7" style="edgeStyle=orthogonalEdgeStyle;rounded=0;orthogonalLoop=1;jettySize=auto;html=1;" parent="1" source="StKT0LGSQb8zcyLeMCrR-6" target="StKT0LGSQb8zcyLeMCrR-8" edge="1">
          <mxGeometry relative="1" as="geometry">
            <mxPoint x="620" y="520" as="targetPoint" />
          </mxGeometry>
        </mxCell>
        <mxCell id="StKT0LGSQb8zcyLeMCrR-6" value="B2B Containers" style="rounded=1;whiteSpace=wrap;html=1;" parent="1" vertex="1">
          <mxGeometry x="305" y="495" width="120" height="60" as="geometry" />
        </mxCell>
        <mxCell id="StKT0LGSQb8zcyLeMCrR-8" value="ECR/DockerHub/jFrog/" style="shape=cylinder3;whiteSpace=wrap;html=1;boundedLbl=1;backgroundOutline=1;size=15;" parent="1" vertex="1">
          <mxGeometry x="550" y="640" width="140" height="90" as="geometry" />
        </mxCell>
        <mxCell id="StKT0LGSQb8zcyLeMCrR-15" style="edgeStyle=orthogonalEdgeStyle;rounded=0;orthogonalLoop=1;jettySize=auto;html=1;" parent="1" source="StKT0LGSQb8zcyLeMCrR-9" target="StKT0LGSQb8zcyLeMCrR-8" edge="1">
          <mxGeometry relative="1" as="geometry">
            <Array as="points">
              <mxPoint x="620" y="310" />
            </Array>
          </mxGeometry>
        </mxCell>
        <mxCell id="StKT0LGSQb8zcyLeMCrR-16" style="edgeStyle=orthogonalEdgeStyle;rounded=0;orthogonalLoop=1;jettySize=auto;html=1;entryX=0;entryY=0;entryDx=0;entryDy=30;entryPerimeter=0;" parent="1" source="StKT0LGSQb8zcyLeMCrR-13" target="StKT0LGSQb8zcyLeMCrR-8" edge="1">
          <mxGeometry relative="1" as="geometry" />
        </mxCell>
        <mxCell id="StKT0LGSQb8zcyLeMCrR-17" style="edgeStyle=orthogonalEdgeStyle;rounded=0;orthogonalLoop=1;jettySize=auto;html=1;entryX=0.145;entryY=0;entryDx=0;entryDy=4.35;entryPerimeter=0;" parent="1" source="StKT0LGSQb8zcyLeMCrR-14" target="StKT0LGSQb8zcyLeMCrR-8" edge="1">
          <mxGeometry relative="1" as="geometry" />
        </mxCell>
        <mxCell id="greVf-_5AgqA9n_BhIaS-1" value="Text" style="text;html=1;strokeColor=none;fillColor=none;align=center;verticalAlign=middle;whiteSpace=wrap;rounded=0;" parent="1" vertex="1">
          <mxGeometry x="400" y="460" width="40" height="20" as="geometry" />
        </mxCell>
        <mxCell id="greVf-_5AgqA9n_BhIaS-2" value="API GW Dev setup" style="text;html=1;strokeColor=none;fillColor=none;align=center;verticalAlign=middle;whiteSpace=wrap;rounded=0;" parent="1" vertex="1">
          <mxGeometry x="240" y="20" width="280" height="30" as="geometry" />
        </mxCell>
        <mxCell id="azHbH-vk2VEpxo70YfmV-1" value="" style="group" parent="1" vertex="1" connectable="0">
          <mxGeometry x="270" y="150" width="260" height="260" as="geometry" />
        </mxCell>
        <mxCell id="StKT0LGSQb8zcyLeMCrR-9" value="" style="whiteSpace=wrap;html=1;aspect=fixed;" parent="azHbH-vk2VEpxo70YfmV-1" vertex="1">
          <mxGeometry width="260" height="260" as="geometry" />
        </mxCell>
        <mxCell id="StKT0LGSQb8zcyLeMCrR-10" value="ELB" style="rounded=1;whiteSpace=wrap;html=1;" parent="azHbH-vk2VEpxo70YfmV-1" vertex="1">
          <mxGeometry x="60" y="10" width="90" height="30" as="geometry" />
        </mxCell>
        <mxCell id="StKT0LGSQb8zcyLeMCrR-11" value="Nginx" style="rounded=1;whiteSpace=wrap;html=1;" parent="azHbH-vk2VEpxo70YfmV-1" vertex="1">
          <mxGeometry x="60" y="60" width="90" height="30" as="geometry" />
        </mxCell>
        <mxCell id="StKT0LGSQb8zcyLeMCrR-12" value="B2B IS" style="rounded=1;whiteSpace=wrap;html=1;" parent="azHbH-vk2VEpxo70YfmV-1" vertex="1">
          <mxGeometry x="25" y="140" width="90" height="40" as="geometry" />
        </mxCell>
        <mxCell id="StKT0LGSQb8zcyLeMCrR-13" value="MySQL DB" style="rounded=1;whiteSpace=wrap;html=1;" parent="azHbH-vk2VEpxo70YfmV-1" vertex="1">
          <mxGeometry x="130" y="140" width="90" height="40" as="geometry" />
        </mxCell>
        <mxCell id="StKT0LGSQb8zcyLeMCrR-14" value="SAG Cloud (Stagining)" style="rounded=1;whiteSpace=wrap;html=1;fillColor=#d5e8d4;strokeColor=#82b366;" parent="azHbH-vk2VEpxo70YfmV-1" vertex="1">
          <mxGeometry x="60" y="200" width="90" height="40" as="geometry" />
        </mxCell>
        <mxCell id="azHbH-vk2VEpxo70YfmV-2" value="CTP" style="rounded=1;whiteSpace=wrap;html=1;" parent="azHbH-vk2VEpxo70YfmV-1" vertex="1">
          <mxGeometry x="150" y="100" width="80" height="30" as="geometry" />
        </mxCell>
        <mxCell id="azHbH-vk2VEpxo70YfmV-3" value="MongoDB" style="rounded=1;whiteSpace=wrap;html=1;" parent="azHbH-vk2VEpxo70YfmV-1" vertex="1">
          <mxGeometry x="30" y="100" width="80" height="30" as="geometry" />
        </mxCell>
        <mxCell id="azHbH-vk2VEpxo70YfmV-7" value="" style="group" parent="1" vertex="1" connectable="0">
          <mxGeometry x="10" y="10" width="260" height="260" as="geometry" />
        </mxCell>
        <mxCell id="azHbH-vk2VEpxo70YfmV-18" value="" style="group" parent="azHbH-vk2VEpxo70YfmV-7" vertex="1" connectable="0">
          <mxGeometry width="250" height="250" as="geometry" />
        </mxCell>
        <mxCell id="azHbH-vk2VEpxo70YfmV-8" value="" style="whiteSpace=wrap;html=1;aspect=fixed;" parent="azHbH-vk2VEpxo70YfmV-18" vertex="1">
          <mxGeometry width="250" height="250" as="geometry" />
        </mxCell>
        <mxCell id="azHbH-vk2VEpxo70YfmV-10" value="Nginx" style="rounded=1;whiteSpace=wrap;html=1;" parent="azHbH-vk2VEpxo70YfmV-18" vertex="1">
          <mxGeometry x="60" y="60" width="90" height="30" as="geometry" />
        </mxCell>
        <mxCell id="azHbH-vk2VEpxo70YfmV-11" value="B2B IS" style="rounded=1;whiteSpace=wrap;html=1;" parent="azHbH-vk2VEpxo70YfmV-18" vertex="1">
          <mxGeometry x="25" y="140" width="90" height="40" as="geometry" />
        </mxCell>
        <mxCell id="azHbH-vk2VEpxo70YfmV-12" value="MySQL DB" style="rounded=1;whiteSpace=wrap;html=1;" parent="azHbH-vk2VEpxo70YfmV-18" vertex="1">
          <mxGeometry x="130" y="140" width="90" height="40" as="geometry" />
        </mxCell>
        <mxCell id="azHbH-vk2VEpxo70YfmV-13" value="SAG Cloud (Stagining)" style="rounded=1;whiteSpace=wrap;html=1;fillColor=#d5e8d4;strokeColor=#82b366;" parent="azHbH-vk2VEpxo70YfmV-18" vertex="1">
          <mxGeometry x="60" y="200" width="90" height="40" as="geometry" />
        </mxCell>
        <mxCell id="azHbH-vk2VEpxo70YfmV-14" value="CTP" style="rounded=1;whiteSpace=wrap;html=1;" parent="azHbH-vk2VEpxo70YfmV-18" vertex="1">
          <mxGeometry x="150" y="100" width="80" height="30" as="geometry" />
        </mxCell>
        <mxCell id="azHbH-vk2VEpxo70YfmV-15" value="MongoDB" style="rounded=1;whiteSpace=wrap;html=1;" parent="azHbH-vk2VEpxo70YfmV-18" vertex="1">
          <mxGeometry x="30" y="100" width="80" height="30" as="geometry" />
        </mxCell>
        <mxCell id="azHbH-vk2VEpxo70YfmV-17" value="B2B Cloud local dev" style="text;html=1;strokeColor=none;fillColor=none;align=center;verticalAlign=middle;whiteSpace=wrap;rounded=0;" parent="azHbH-vk2VEpxo70YfmV-18" vertex="1">
          <mxGeometry x="70" y="10" width="110" height="20" as="geometry" />
        </mxCell>
        <mxCell id="azHbH-vk2VEpxo70YfmV-16" value="Text" style="text;html=1;strokeColor=none;fillColor=none;align=center;verticalAlign=middle;whiteSpace=wrap;rounded=0;" parent="1" vertex="1">
          <mxGeometry x="400" y="450" width="40" height="20" as="geometry" />
        </mxCell>
        <mxCell id="Yl9YsVzmQkoOCrR1TgRs-1" value="" style="group" vertex="1" connectable="0" parent="1">
          <mxGeometry x="570" y="150" width="260" height="260" as="geometry" />
        </mxCell>
        <mxCell id="Yl9YsVzmQkoOCrR1TgRs-2" value="" style="whiteSpace=wrap;html=1;aspect=fixed;" vertex="1" parent="Yl9YsVzmQkoOCrR1TgRs-1">
          <mxGeometry width="260" height="260" as="geometry" />
        </mxCell>
        <mxCell id="Yl9YsVzmQkoOCrR1TgRs-3" value="ELB" style="rounded=1;whiteSpace=wrap;html=1;" vertex="1" parent="Yl9YsVzmQkoOCrR1TgRs-1">
          <mxGeometry x="60" y="10" width="90" height="30" as="geometry" />
        </mxCell>
        <mxCell id="Yl9YsVzmQkoOCrR1TgRs-4" value="Nginx" style="rounded=1;whiteSpace=wrap;html=1;" vertex="1" parent="Yl9YsVzmQkoOCrR1TgRs-1">
          <mxGeometry x="60" y="60" width="90" height="30" as="geometry" />
        </mxCell>
        <mxCell id="Yl9YsVzmQkoOCrR1TgRs-5" value="B2B IS" style="rounded=1;whiteSpace=wrap;html=1;" vertex="1" parent="Yl9YsVzmQkoOCrR1TgRs-1">
          <mxGeometry x="25" y="140" width="90" height="40" as="geometry" />
        </mxCell>
        <mxCell id="Yl9YsVzmQkoOCrR1TgRs-6" value="MySQL DB" style="rounded=1;whiteSpace=wrap;html=1;" vertex="1" parent="Yl9YsVzmQkoOCrR1TgRs-1">
          <mxGeometry x="130" y="140" width="90" height="40" as="geometry" />
        </mxCell>
        <mxCell id="Yl9YsVzmQkoOCrR1TgRs-7" value="SAG Cloud (Stagining)" style="rounded=1;whiteSpace=wrap;html=1;fillColor=#d5e8d4;strokeColor=#82b366;" vertex="1" parent="Yl9YsVzmQkoOCrR1TgRs-1">
          <mxGeometry x="60" y="200" width="90" height="40" as="geometry" />
        </mxCell>
        <mxCell id="Yl9YsVzmQkoOCrR1TgRs-8" value="CTP" style="rounded=1;whiteSpace=wrap;html=1;" vertex="1" parent="Yl9YsVzmQkoOCrR1TgRs-1">
          <mxGeometry x="150" y="100" width="80" height="30" as="geometry" />
        </mxCell>
        <mxCell id="Yl9YsVzmQkoOCrR1TgRs-9" value="MongoDB" style="rounded=1;whiteSpace=wrap;html=1;" vertex="1" parent="Yl9YsVzmQkoOCrR1TgRs-1">
          <mxGeometry x="30" y="100" width="80" height="30" as="geometry" />
        </mxCell>
      </root>
    </mxGraphModel>
  </diagram>
</mxfile>
